<?xml version="1.0" encoding="UTF-8"?>
<!DOCTYPE svg PUBLIC "-//W3C//DTD SVG 1.1//EN" "http://www.w3.org/Graphics/SVG/1.1/DTD/svg11.dtd">
<!-- Creator: CorelDRAW 2017 -->
<svg xmlns="http://www.w3.org/2000/svg" xml:space="preserve" width="75.0406mm" height="56.748mm" version="1.1" style="shape-rendering:geometricPrecision; text-rendering:geometricPrecision; image-rendering:optimizeQuality; fill-rule:evenodd; clip-rule:evenodd"
viewBox="0 0 8441.2 6383.49"
 xmlns:xlink="http://www.w3.org/1999/xlink">
 <defs>
  <style type="text/css">
   <![CDATA[
    .fil12 {fill:#37383C}
    .fil4 {fill:url(#id0)}
    .fil16 {fill:url(#id1)}
    .fil17 {fill:url(#id2)}
    .fil8 {fill:url(#id3)}
    .fil6 {fill:url(#id4)}
    .fil0 {fill:url(#id5)}
    .fil15 {fill:url(#id6)}
    .fil18 {fill:url(#id7)}
    .fil19 {fill:url(#id8)}
    .fil10 {fill:url(#id9)}
    .fil1 {fill:url(#id10)}
    .fil20 {fill:url(#id11)}
    .fil23 {fill:url(#id12)}
    .fil21 {fill:url(#id13)}
    .fil22 {fill:url(#id14)}
    .fil9 {fill:url(#id15)}
    .fil3 {fill:url(#id16)}
    .fil2 {fill:url(#id17)}
    .fil5 {fill:url(#id18)}
    .fil7 {fill:url(#id19)}
    .fil13 {fill:url(#id20)}
    .fil14 {fill:url(#id21)}
    .fil11 {fill:url(#id22)}
   ]]>
  </style>
  <linearGradient id="id0" gradientUnits="userSpaceOnUse" x1="2268.99" y1="5414.27" x2="4207.72" y2="5414.27">
   <stop offset="0" style="stop-opacity:1; stop-color:#7C72FF"/>
   <stop offset="1" style="stop-opacity:1; stop-color:#6D64F4"/>
  </linearGradient>
  <linearGradient id="id1" gradientUnits="userSpaceOnUse" xlink:href="#id0" x1="2260.73" y1="691.44" x2="3082.05" y2="691.44">
  </linearGradient>
  <linearGradient id="id2" gradientUnits="userSpaceOnUse" xlink:href="#id0" x1="2260.73" y1="1777.53" x2="3082.05" y2="1777.53">
  </linearGradient>
  <linearGradient id="id3" gradientUnits="userSpaceOnUse" xlink:href="#id0" x1="777.75" y1="3112.62" x2="2203.72" y2="3112.62">
  </linearGradient>
  <linearGradient id="id4" gradientUnits="userSpaceOnUse" xlink:href="#id0" x1="1943.98" y1="3789.44" x2="2203.72" y2="3789.44">
  </linearGradient>
  <linearGradient id="id5" gradientUnits="userSpaceOnUse" xlink:href="#id0" x1="433.33" y1="3258.22" x2="4158.8" y2="3258.22">
  </linearGradient>
  <linearGradient id="id6" gradientUnits="userSpaceOnUse" xlink:href="#id0" x1="3346.77" y1="691.44" x2="4168.05" y2="691.44">
  </linearGradient>
  <linearGradient id="id7" gradientUnits="userSpaceOnUse" xlink:href="#id0" x1="3346.77" y1="1777.53" x2="4168.05" y2="1777.53">
  </linearGradient>
  <linearGradient id="id8" gradientUnits="userSpaceOnUse" xlink:href="#id0" x1="-0" y1="1616.68" x2="1801.8" y2="1616.68">
  </linearGradient>
  <linearGradient id="id9" gradientUnits="userSpaceOnUse" xlink:href="#id0" x1="4665.89" y1="3258.01" x2="4909.56" y2="3258.01">
  </linearGradient>
  <linearGradient id="id10" gradientUnits="userSpaceOnUse" xlink:href="#id0" x1="1669.94" y1="4329.12" x2="2922.05" y2="4329.12">
  </linearGradient>
  <linearGradient id="id11" gradientUnits="userSpaceOnUse" xlink:href="#id0" x1="1003.48" y1="1233.05" x2="1590.6" y2="1233.05">
  </linearGradient>
  <linearGradient id="id12" gradientUnits="userSpaceOnUse" xlink:href="#id0" x1="1003.48" y1="2009.44" x2="1590.6" y2="2009.44">
  </linearGradient>
  <linearGradient id="id13" gradientUnits="userSpaceOnUse" xlink:href="#id0" x1="227.06" y1="1233.05" x2="814.19" y2="1233.05">
  </linearGradient>
  <linearGradient id="id14" gradientUnits="userSpaceOnUse" xlink:href="#id0" x1="227.06" y1="2009.44" x2="814.19" y2="2009.44">
  </linearGradient>
  <linearGradient id="id15" gradientUnits="userSpaceOnUse" xlink:href="#id0" x1="4212.16" y1="3258.15" x2="4719.98" y2="3258.15">
  </linearGradient>
  <linearGradient id="id16" gradientUnits="userSpaceOnUse" xlink:href="#id0" x1="384.41" y1="5414.27" x2="2323.13" y2="5414.27">
  </linearGradient>
  <linearGradient id="id17" gradientUnits="userSpaceOnUse" xlink:href="#id0" x1="2268.99" y1="5403.09" x2="2323.12" y2="5403.09">
  </linearGradient>
  <linearGradient id="id18" gradientUnits="userSpaceOnUse" xlink:href="#id0" x1="777.75" y1="3789.44" x2="1830.25" y2="3789.44">
  </linearGradient>
  <linearGradient id="id19" gradientUnits="userSpaceOnUse" xlink:href="#id0" x1="777.75" y1="3386.7" x2="1830.25" y2="3386.7">
  </linearGradient>
  <linearGradient id="id20" gradientUnits="userSpaceOnUse" xlink:href="#id0" x1="1979.92" y1="1234.73" x2="4448.64" y2="1234.73">
  </linearGradient>
  <linearGradient id="id21" gradientUnits="userSpaceOnUse" xlink:href="#id0" x1="2987.86" y1="1234.5" x2="3440.88" y2="1234.5">
  </linearGradient>
  <linearGradient id="id22" gradientUnits="userSpaceOnUse" x1="7072.63" y1="2887.08" x2="5143.64" y2="3030.96">
   <stop offset="0" style="stop-opacity:0; stop-color:#88F3E2"/>
   <stop offset="1" style="stop-opacity:1; stop-color:#50E3C2"/>
  </linearGradient>
 </defs>
 <g id="Capa_x0020_1">
  <metadata id="CorelCorpID_0Corel-Layer"/>
  <g id="_2472932625392">
   <g id="Clip-4">
   </g>
   <path id="Fill-3" class="fil0" d="M796.04 2302.47c-199.99,0 -362.7,162.67 -362.7,362.61l0 0 0 1185.85c0,199.95 162.7,362.64 362.7,362.64l0 0 3000.04 0c199.99,0 362.73,-162.69 362.73,-362.64l0 0 0 -1185.85c0,-199.94 -162.74,-362.61 -362.73,-362.61l0 0 -3000.04 0zm-308.56 1548.46l0 -1185.85c0,-170.08 138.44,-308.47 308.56,-308.47l0 0 3000.04 0c170.11,0 308.58,138.38 308.58,308.47l0 0 0 1185.85c0,170.12 -138.47,308.5 -308.58,308.5l0 0 -3000.04 0c-170.12,0 -308.56,-138.38 -308.56,-308.5l0 0z"/>
   <g id="Clip-24">
   </g>
   <path id="Fill-23" class="fil1" d="M1697.03 4159.43c-14.97,0 -27.1,12.1 -27.1,27.08l0 0 0 11.43c0,165.91 135.03,300.87 300.9,300.87l0 0 650.37 0c165.94,0 300.97,-134.96 300.97,-300.87l0 0 0 -11.43c0,-14.97 -12.14,-27.08 -27.08,-27.08l0 0 -1198.07 0zm27.55 54.14l1142.95 0c-8.09,128.81 -115.49,231.12 -246.33,231.12l0 0 -650.37 0c-130.76,0 -238.16,-102.31 -246.25,-231.12l0 0z"/>
   <g id="Clip-27">
   </g>
   <path id="Fill-26" class="fil2" d="M2268.99 4471.75l0 1862.7c0,14.94 12.1,27.04 27.06,27.04l0 0c14.97,0 27.08,-12.1 27.08,-27.04l0 0 0 -1862.7c0,-14.98 -12.1,-27.06 -27.08,-27.06l0 0c-14.96,0 -27.06,12.08 -27.06,27.06z"/>
   <g id="Clip-30">
   </g>
   <path id="Fill-29" class="fil3" d="M2276.92 4452.59l-1884.58 1884.7c-10.59,10.57 -10.59,27.69 0,38.3l0 0c5.28,5.26 12.2,7.91 19.15,7.91l0 0c6.93,0 13.86,-2.64 19.13,-7.91l0 0 1884.56 -1884.7c10.57,-10.6 10.57,-27.69 0,-38.3l0 0c-5.28,-5.26 -12.2,-7.9 -19.13,-7.9l0 0c-6.93,0 -13.87,2.63 -19.13,7.9z"/>
   <g id="Clip-33">
   </g>
   <path id="Fill-32" class="fil4" d="M2276.92 4452.59c-10.57,10.61 -10.57,27.71 0,38.3l0 0 1884.56 1884.7c5.3,5.26 12.23,7.91 19.17,7.91l0 0c6.9,0 13.84,-2.64 19.13,-7.91l0 0c10.57,-10.61 10.57,-27.73 0,-38.3l0 0 -1884.6 -1884.7c-5.28,-5.26 -12.2,-7.9 -19.13,-7.9l0 0c-6.93,0 -13.87,2.63 -19.13,7.9z"/>
   <g id="Clip-36">
   </g>
   <path id="Fill-35" class="fil5" d="M804.82 3661.71c-14.98,0 -27.06,12.1 -27.06,27.08l0 0 0 201.26c0,14.94 12.08,27.08 27.06,27.08l0 0 998.44 0c14.97,0 27.1,-12.14 27.1,-27.08l0 0 0 -201.26c0,-14.97 -12.13,-27.08 -27.1,-27.08l0 0 -998.44 0zm27.08 201.24l944.3 0 0 -147.1 -944.3 0 0 147.1z"/>
   <g id="Clip-39">
   </g>
   <path id="Fill-38" class="fil6" d="M1971.06 3661.71c-14.96,0 -27.08,12.1 -27.08,27.08l0 0 0 201.26c0,14.94 12.12,27.08 27.08,27.08l0 0 205.6 0c14.97,0 27.06,-12.14 27.06,-27.08l0 0 0 -201.26c0,-14.97 -12.09,-27.08 -27.06,-27.08l0 0 -205.6 0zm27.08 201.24l151.45 0 0 -147.1 -151.45 0 0 147.1z"/>
   <g id="Clip-42">
   </g>
   <path id="Fill-41" class="fil7" d="M804.82 3359.61c-14.98,0 -27.06,12.08 -27.06,27.06l0 0c0,14.95 12.08,27.08 27.06,27.08l0 0 998.44 0c14.97,0 27.1,-12.13 27.1,-27.08l0 0c0,-14.98 -12.13,-27.06 -27.1,-27.06l0 0 -998.44 0z"/>
   <g id="Clip-45">
   </g>
   <path id="Fill-44" class="fil8" d="M804.82 3085.51c-14.98,0 -27.06,12.13 -27.06,27.06l0 0c0,14.97 12.08,27.1 27.06,27.1l0 0 1371.83 0c14.97,0 27.06,-12.13 27.06,-27.1l0 0c0,-14.94 -12.09,-27.06 -27.06,-27.06l0 0 -1371.83 0z"/>
   <g id="Clip-50">
   </g>
   <path id="Fill-49" class="fil9" d="M4679.43 2651.58l-453.74 262c-8.35,4.87 -13.52,13.78 -13.52,23.45l0 0 0 641.99c0,9.66 5.17,18.58 13.52,23.42l0 0 453.74 262c4.14,2.4 8.86,3.61 13.53,3.61l0 0c4.62,0 9.35,-1.21 13.53,-3.61l0 0c8.35,-4.84 13.54,-13.78 13.54,-23.45l0 0 0 -1165.95c0,-9.66 -5.2,-18.58 -13.54,-23.45l0 0c-4.18,-2.38 -8.86,-3.59 -13.55,-3.59l0 0c-4.67,0 -9.35,1.2 -13.51,3.59l0 0zm-413.15 911.8l0 -610.73 399.62 -230.68 0 1072.12 -399.62 -230.7z"/>
   <g id="Clip-55">
   </g>
   <path id="Fill-54" class="fil10" d="M4868.93 2467.68l-189.5 109.44c-8.37,4.79 -13.53,13.76 -13.53,23.43l0 0 0 1314.87c0,9.66 5.16,18.64 13.53,23.45l0 0 189.5 109.46c4.2,2.42 8.91,3.62 13.55,3.62l0 0c4.65,0 9.37,-1.2 13.54,-3.62l0 0c8.34,-4.85 13.53,-13.76 13.53,-23.45l0 0 0 -1533.75c0,-9.67 -5.2,-18.62 -13.53,-23.45l0 0c-4.17,-2.41 -8.86,-3.61 -13.54,-3.61l0 0c-4.69,0 -9.36,1.2 -13.55,3.61l0 0zm-148.89 1432.12l0 -1283.62 135.36 -78.12 0 1439.91 -135.36 -78.17z"/>
  </g>
  <g id="_2472932635920">
   <g id="GIFOS">
    <g id="_00-UI-Kit">
     <polygon id="element-luz-camara" class="fil11" points="4984.55,2459.01 8441.2,287.3 8441.2,6023.05 4984.55,4014.07 "/>
    </g>
   </g>
  </g>
  <g id="element_cinta2-modo-noc">
   <path id="Fill-6" class="fil12" d="M4422.07 1234.46c0,666.96 -540.7,1207.68 -1207.69,1207.68 -666.97,0 -1207.66,-540.72 -1207.66,-1207.68 0,-666.97 540.7,-1207.65 1207.66,-1207.65 666.99,0 1207.69,540.69 1207.69,1207.65z"/>
   <g id="Clip-9">
   </g>
   <path id="Fill-8" class="fil13" d="M3214.39 0c-680.69,0 -1234.47,553.78 -1234.47,1234.48l0 0c0,680.7 553.78,1234.46 1234.47,1234.46l0 0c680.7,0 1234.5,-553.76 1234.5,-1234.46l0 0c0,-680.7 -553.8,-1234.48 -1234.5,-1234.48zm-1180.85 1234.48c0,-651.13 529.74,-1180.85 1180.85,-1180.85l0 0c651.13,0 1180.86,529.72 1180.86,1180.85l0 0c0,651.11 -529.73,1180.84 -1180.86,1180.84l0 0c-651.11,0 -1180.85,-529.73 -1180.85,-1180.84l0 0z"/>
   <g id="Clip-19">
   </g>
   <path id="Fill-18" class="fil14" d="M2987.86 1234.46c0,124.91 101.63,226.53 226.53,226.53l0 0c124.91,0 226.53,-101.62 226.53,-226.53l0 0c0,-124.91 -101.62,-226.53 -226.53,-226.53l0 0c-124.9,0 -226.53,101.62 -226.53,226.53m23.71 0c0,-111.85 90.97,-202.83 202.82,-202.83l0 0c111.85,0 202.85,90.98 202.85,202.83l0 0c0,111.85 -91,202.85 -202.85,202.85l0 0c-111.85,0 -202.82,-91 -202.82,-202.85z"/>
   <g id="Clip-60">
   </g>
   <path id="Fill-59" class="fil15" d="M3353.82 285.6c-4.48,3.86 -7.06,9.42 -7.06,15.28l0 0 0 591.84c0,7.93 4.7,15.1 11.96,18.32l0 0c80.11,35.39 143.72,98.99 179.1,179.1l0 0c3.16,7.26 10.39,11.94 18.3,11.94l0 0 591.86 0c5.87,0 11.44,-2.56 15.3,-7.01l0 0c3.78,-4.51 5.42,-10.43 4.53,-16.2l0 0c-65.78,-411.42 -386.38,-732.04 -797.8,-797.81l0 0c-1.01,-0.16 -2.04,-0.22 -3.06,-0.22l0 0c-4.77,0 -9.44,1.66 -13.13,4.77m33.05 594.28l0 -555.2c375.39,69.74 667.54,361.95 737.28,737.31l0 0 -555.14 0c-38.48,-79.69 -102.4,-143.68 -182.14,-182.11z"/>
   <g id="Clip-65">
   </g>
   <path id="Fill-64" class="fil16" d="M3058.84 281.05c-411.44,65.77 -732.07,386.4 -797.86,797.81l0 0c-0.92,5.77 0.74,11.69 4.54,16.2l0 0c3.84,4.44 9.38,7.01 15.3,7.01l0 0 591.78 0c7.96,0 15.13,-4.68 18.36,-11.94l0 0c35.42,-80.14 99.07,-143.73 179.15,-179.1l0 0c7.27,-3.23 11.95,-10.39 11.95,-18.32l0 0 0 -591.84c0,-5.86 -2.58,-11.42 -7.04,-15.28l0 0c-3.68,-3.1 -8.36,-4.77 -13.14,-4.77l0 0c-0.99,0 -2.01,0.07 -3.04,0.22m-16.88 43.62l0 555.2c-79.71,38.37 -143.67,102.34 -182.15,182.11l0 0 -555.16 0c69.73,-375.41 361.92,-667.56 737.32,-737.31z"/>
   <g id="Clip-70">
   </g>
   <path id="Fill-69" class="fil17" d="M2280.83 1366.8c-5.92,0 -11.46,2.58 -15.3,7.03l0 0c-3.8,4.48 -5.47,10.41 -4.54,16.19l0 0c65.78,411.37 386.38,732.01 797.86,797.85l0 0c1.06,0.16 2.1,0.25 3.16,0.25l0 0c4.72,0 9.38,-1.69 13.01,-4.78l0 0c4.47,-3.82 7.04,-9.39 7.04,-15.31l0 0 0 -591.81c0,-7.96 -4.68,-15.14 -11.95,-18.36l0 0c-80.08,-35.37 -143.73,-98.96 -179.15,-179.12l0 0c-3.23,-7.24 -10.39,-11.94 -18.36,-11.94l0 0 -591.78 0zm23.81 40.09l555.16 0c38.48,79.73 102.44,143.7 182.15,182.13l0 0 0 555.2c-375.4,-69.77 -667.59,-361.98 -737.32,-737.33l0 0z"/>
   <g id="Clip-75">
   </g>
   <path id="Fill-74" class="fil18" d="M3556.12 1366.8c-7.91,0 -15.14,4.69 -18.3,11.94l0 0c-35.39,80.14 -98.99,143.7 -179.1,179.12l0 0c-7.26,3.22 -11.96,10.39 -11.96,18.36l0 0 0 591.81c0,5.92 2.59,11.49 7.06,15.31l0 0c3.66,3.09 8.26,4.78 13.01,4.78l0 0c1.03,0 2.08,-0.09 3.17,-0.25l0 0c411.43,-65.84 732.02,-386.48 797.8,-797.85l0 0c0.89,-5.78 -0.75,-11.71 -4.53,-16.19l0 0c-3.86,-4.45 -9.43,-7.03 -15.3,-7.03l0 0 -591.86 0zm-169.25 222.22c79.74,-38.45 143.66,-102.42 182.14,-182.13l0 0 555.14 0c-69.69,375.35 -361.9,667.56 -737.28,737.33l0 0 0 -555.2z"/>
  </g>
  <g id="element_cinta1-modo-noc">
   <path id="Fill-11" class="fil12" d="M900.94 2490.35c-482.62,0 -873.82,-391.22 -873.82,-873.84 0,-482.65 391.2,-873.88 873.82,-873.88 482.62,0 873.9,391.22 873.9,873.88 0,482.62 -391.28,873.84 -873.9,873.84z"/>
   <g id="Clip-14">
   </g>
   <path id="Fill-13" class="fil19" d="M-0 1616.49c0,496.78 404.18,900.97 900.95,900.97l0 0c496.84,0 901.02,-404.18 901.02,-900.97l0 0c0,-496.78 -404.18,-900.97 -901.02,-900.97l0 0c-496.77,0 -900.95,404.18 -900.95,900.97m54.22 0c0,-466.88 379.84,-846.73 846.73,-846.73l0 0c466.89,0 846.78,379.85 846.78,846.73l0 0c0,466.88 -379.88,846.73 -846.78,846.73l0 0c-466.89,0 -846.73,-379.85 -846.73,-846.73z"/>
   <g id="Clip-80">
   </g>
   <path id="Fill-79" class="fil20" d="M1008.5 942.88c-3.19,2.78 -5.03,6.73 -5.03,10.95l0 0 0 423.09c0,5.68 3.34,10.82 8.53,13.1l0 0c57.29,25.3 102.76,70.77 128.03,128.06l0 0c2.26,5.16 7.45,8.53 13.1,8.53l0 0 423.11 0c4.2,0 8.2,-1.83 10.95,-5.03l0 0c2.69,-3.19 3.89,-7.44 3.22,-11.56l0 0c-47.03,-294.12 -276.19,-523.31 -570.35,-570.37l0 0c-0.73,-0.09 -1.45,-0.16 -2.18,-0.16l0 0c-3.42,0 -6.74,1.19 -9.38,3.4m23.63 424.88l0 -396.9c268.35,49.84 477.24,258.73 527.09,527.09l0 0 -396.88 0c-27.48,-56.96 -73.22,-102.71 -130.21,-130.18z"/>
   <g id="Clip-85">
   </g>
   <path id="Fill-84" class="fil21" d="M797.62 939.64c-294.1,47.07 -523.36,276.25 -570.4,570.37l0 0c-0.63,4.13 0.53,8.37 3.27,11.56l0 0c2.73,3.19 6.7,5.03 10.89,5.03l0 0 423.11 0c5.67,0 10.82,-3.36 13.1,-8.53l0 0c25.32,-57.31 70.82,-102.78 128.09,-128.06l0 0c5.17,-2.28 8.54,-7.42 8.54,-13.1l0 0 0 -423.09c0,-4.22 -1.84,-8.17 -5.04,-10.95l0 0c-2.64,-2.2 -6,-3.4 -9.38,-3.4l0 0c-0.73,0 -1.46,0.07 -2.19,0.16m-12.09 31.22l0 396.9c-56.94,27.45 -102.69,73.2 -130.21,130.18l0 0 -396.88 0c49.84,-268.35 258.73,-477.24 527.09,-527.09z"/>
   <g id="Clip-90">
   </g>
   <path id="Fill-89" class="fil22" d="M241.39 1715.84c-4.18,0 -8.16,1.86 -10.89,5.04l0 0c-2.74,3.19 -3.9,7.42 -3.27,11.58l0 0c47.03,294.1 276.25,523.34 570.4,570.4l0 0c0.75,0.1 1.51,0.17 2.26,0.17l0 0c3.4,0 6.72,-1.23 9.31,-3.41l0 0c3.19,-2.74 5.04,-6.72 5.04,-10.97l0 0 0 -423.07c0,-5.71 -3.36,-10.81 -8.54,-13.13l0 0c-57.27,-25.3 -102.77,-70.74 -128.09,-128.07l0 0c-2.28,-5.15 -7.44,-8.54 -13.1,-8.54l0 0 -423.11 0zm17.05 28.66l396.88 0c27.51,57.04 73.26,102.78 130.21,130.19l0 0 0 396.97c-268.35,-49.9 -477.24,-258.8 -527.09,-527.17l0 0z"/>
   <g id="Clip-95">
   </g>
   <path id="Fill-94" class="fil23" d="M1153.14 1715.84c-5.66,0 -10.84,3.39 -13.1,8.54l0 0c-25.28,57.29 -70.74,102.74 -128.03,128.07l0 0c-5.19,2.32 -8.53,7.41 -8.53,13.13l0 0 0 423.07c0,4.25 1.83,8.22 5.03,10.97l0 0c2.61,2.18 5.92,3.41 9.28,3.41l0 0c0.78,0 1.54,-0.07 2.28,-0.17l0 0c294.16,-47.05 523.32,-276.29 570.35,-570.4l0 0c0.67,-4.15 -0.53,-8.38 -3.22,-11.58l0 0c-2.74,-3.18 -6.75,-5.04 -10.95,-5.04l0 0 -423.11 0zm-121 158.86c56.99,-27.46 102.72,-73.17 130.21,-130.19l0 0 396.88 0c-49.84,268.36 -258.73,477.27 -527.09,527.17l0 0 0 -396.97z"/>
  </g>
 </g>
</svg>
