<?xml version="1.0" encoding="UTF-8"?>
<!DOCTYPE svg PUBLIC "-//W3C//DTD SVG 1.1//EN" "http://www.w3.org/Graphics/SVG/1.1/DTD/svg11.dtd">
<!-- Creator: CorelDRAW 2017 -->
<svg xmlns="http://www.w3.org/2000/svg" xml:space="preserve" width="75.0001mm" height="56.8685mm" version="1.1" style="shape-rendering:geometricPrecision; text-rendering:geometricPrecision; image-rendering:optimizeQuality; fill-rule:evenodd; clip-rule:evenodd"
viewBox="0 0 3345.25 2536.52"
 xmlns:xlink="http://www.w3.org/1999/xlink">
 <defs>
  <style type="text/css">
   <![CDATA[
    .fil12 {fill:white}
    .fil8 {fill:url(#id0)}
    .fil4 {fill:url(#id1)}
    .fil23 {fill:url(#id2)}
    .fil20 {fill:url(#id3)}
    .fil13 {fill:url(#id4)}
    .fil14 {fill:url(#id5)}
    .fil17 {fill:url(#id6)}
    .fil15 {fill:url(#id7)}
    .fil16 {fill:url(#id8)}
    .fil19 {fill:url(#id9)}
    .fil6 {fill:url(#id10)}
    .fil0 {fill:url(#id11)}
    .fil1 {fill:url(#id12)}
    .fil3 {fill:url(#id13)}
    .fil9 {fill:url(#id14)}
    .fil18 {fill:url(#id15)}
    .fil10 {fill:url(#id16)}
    .fil2 {fill:url(#id17)}
    .fil5 {fill:url(#id18)}
    .fil7 {fill:url(#id19)}
    .fil22 {fill:url(#id20)}
    .fil21 {fill:url(#id21)}
    .fil11 {fill:url(#id22)}
   ]]>
  </style>
  <linearGradient id="id0" gradientUnits="userSpaceOnUse" x1="306.58" y1="1239.57" x2="872" y2="1239.57">
   <stop offset="0" style="stop-opacity:1; stop-color:#7C72FF"/>
   <stop offset="1" style="stop-opacity:1; stop-color:#6D64F4"/>
  </linearGradient>
  <linearGradient id="id1" gradientUnits="userSpaceOnUse" xlink:href="#id0" x1="897.88" y1="2152.21" x2="1666.61" y2="2152.21">
  </linearGradient>
  <linearGradient id="id2" gradientUnits="userSpaceOnUse" xlink:href="#id0" x1="1326.01" y1="714.04" x2="1655.92" y2="714.04">
  </linearGradient>
  <linearGradient id="id3" gradientUnits="userSpaceOnUse" xlink:href="#id0" x1="1326.01" y1="277.76" x2="1655.92" y2="277.76">
  </linearGradient>
  <linearGradient id="id4" gradientUnits="userSpaceOnUse" xlink:href="#id0" x1="-0" y1="645.4" x2="719.25" y2="645.4">
  </linearGradient>
  <linearGradient id="id5" gradientUnits="userSpaceOnUse" xlink:href="#id0" x1="400.57" y1="492.26" x2="634.94" y2="492.26">
  </linearGradient>
  <linearGradient id="id6" gradientUnits="userSpaceOnUse" xlink:href="#id0" x1="400.57" y1="802.18" x2="634.94" y2="802.18">
  </linearGradient>
  <linearGradient id="id7" gradientUnits="userSpaceOnUse" xlink:href="#id0" x1="90.64" y1="492.26" x2="325.01" y2="492.26">
  </linearGradient>
  <linearGradient id="id8" gradientUnits="userSpaceOnUse" xlink:href="#id0" x1="90.64" y1="802.18" x2="325.01" y2="802.18">
  </linearGradient>
  <linearGradient id="id9" gradientUnits="userSpaceOnUse" xlink:href="#id0" x1="1181.83" y1="495.91" x2="1363.81" y2="495.91">
  </linearGradient>
  <linearGradient id="id10" gradientUnits="userSpaceOnUse" xlink:href="#id0" x1="769.01" y1="1507.94" x2="872" y2="1507.94">
  </linearGradient>
  <linearGradient id="id11" gradientUnits="userSpaceOnUse" xlink:href="#id0" x1="170.01" y1="1297.3" x2="1647.22" y2="1297.3">
  </linearGradient>
  <linearGradient id="id12" gradientUnits="userSpaceOnUse" xlink:href="#id0" x1="660.35" y1="1721.93" x2="1156.83" y2="1721.93">
  </linearGradient>
  <linearGradient id="id13" gradientUnits="userSpaceOnUse" xlink:href="#id0" x1="150.62" y1="2152.21" x2="919.35" y2="2152.21">
  </linearGradient>
  <linearGradient id="id14" gradientUnits="userSpaceOnUse" xlink:href="#id0" x1="1668.38" y1="1297.28" x2="1869.73" y2="1297.28">
  </linearGradient>
  <linearGradient id="id15" gradientUnits="userSpaceOnUse" xlink:href="#id0" x1="776.94" y1="495.99" x2="1768.63" y2="495.99">
  </linearGradient>
  <linearGradient id="id16" gradientUnits="userSpaceOnUse" xlink:href="#id0" x1="1848.28" y1="1297.22" x2="1944.9" y2="1297.22">
  </linearGradient>
  <linearGradient id="id17" gradientUnits="userSpaceOnUse" xlink:href="#id0" x1="897.88" y1="2147.78" x2="919.34" y2="2147.78">
  </linearGradient>
  <linearGradient id="id18" gradientUnits="userSpaceOnUse" xlink:href="#id0" x1="306.58" y1="1507.94" x2="723.92" y2="1507.94">
  </linearGradient>
  <linearGradient id="id19" gradientUnits="userSpaceOnUse" xlink:href="#id0" x1="306.58" y1="1348.25" x2="723.92" y2="1348.25">
  </linearGradient>
  <linearGradient id="id20" gradientUnits="userSpaceOnUse" xlink:href="#id0" x1="889.74" y1="714.04" x2="1219.67" y2="714.04">
  </linearGradient>
  <linearGradient id="id21" gradientUnits="userSpaceOnUse" xlink:href="#id0" x1="889.74" y1="277.76" x2="1219.67" y2="277.76">
  </linearGradient>
  <linearGradient id="id22" gradientUnits="userSpaceOnUse" x1="2802.59" y1="1150.14" x2="2037.72" y2="1207.19">
   <stop offset="0" style="stop-opacity:0; stop-color:#88F3E2"/>
   <stop offset="1" style="stop-opacity:1; stop-color:#50E3C2"/>
  </linearGradient>
 </defs>
 <g id="Capa_x0020_1">
  <metadata id="CorelCorpID_0Corel-Layer"/>
  <g id="_2472932620368">
   <g id="Clip-4">
   </g>
   <path id="Fill-3" class="fil0" d="M313.83 918.34c-79.3,0 -143.81,64.5 -143.81,143.78l0 0 0 470.21c0,79.28 64.51,143.79 143.81,143.79l0 0 1189.56 0c79.3,0 143.83,-64.51 143.83,-143.79l0 0 0 -470.21c0,-79.28 -64.53,-143.78 -143.83,-143.78l0 0 -1189.56 0zm-122.35 613.99l0 -470.21c0,-67.44 54.89,-122.31 122.35,-122.31l0 0 1189.56 0c67.45,0 122.36,54.87 122.36,122.31l0 0 0 470.21c0,67.45 -54.91,122.32 -122.36,122.32l0 0 -1189.56 0c-67.45,0 -122.35,-54.87 -122.35,-122.32l0 0z"/>
   <g id="Clip-24">
   </g>
   <path id="Fill-23" class="fil1" d="M671.09 1654.65c-5.94,0 -10.74,4.8 -10.74,10.74l0 0 0 4.53c0,65.79 53.54,119.3 119.31,119.3l0 0 257.88 0c65.8,0 119.34,-53.51 119.34,-119.3l0 0 0 -4.53c0,-5.94 -4.81,-10.74 -10.74,-10.74l0 0 -475.05 0zm10.92 21.47l453.2 0c-3.21,51.08 -45.79,91.64 -97.67,91.64l0 0 -257.88 0c-51.85,0 -94.43,-40.57 -97.64,-91.64l0 0z"/>
   <g id="Clip-27">
   </g>
   <path id="Fill-26" class="fil2" d="M897.88 1778.49l0 738.59c0,5.92 4.8,10.72 10.73,10.72l0 0c5.94,0 10.74,-4.8 10.74,-10.72l0 0 0 -738.59c0,-5.94 -4.8,-10.73 -10.74,-10.73l0 0c-5.93,0 -10.73,4.79 -10.73,10.73z"/>
   <g id="Clip-30">
   </g>
   <path id="Fill-29" class="fil3" d="M901.03 1770.89l-747.26 747.31c-4.2,4.19 -4.2,10.98 0,15.19l0 0c2.09,2.09 4.84,3.14 7.59,3.14l0 0c2.75,0 5.5,-1.05 7.59,-3.14l0 0 747.26 -747.31c4.19,-4.2 4.19,-10.98 0,-15.19l0 0c-2.09,-2.09 -4.84,-3.13 -7.59,-3.13l0 0c-2.75,0 -5.5,1.04 -7.59,3.13z"/>
   <g id="Clip-33">
   </g>
   <path id="Fill-32" class="fil4" d="M901.03 1770.89c-4.19,4.21 -4.19,10.99 0,15.19l0 0 747.26 747.31c2.1,2.09 4.85,3.14 7.6,3.14l0 0c2.73,0 5.49,-1.05 7.59,-3.14l0 0c4.19,-4.21 4.19,-10.99 0,-15.19l0 0 -747.27 -747.31c-2.09,-2.09 -4.84,-3.13 -7.59,-3.13l0 0c-2.75,0 -5.5,1.04 -7.59,3.13z"/>
   <g id="Clip-36">
   </g>
   <path id="Fill-35" class="fil5" d="M317.32 1457.3c-5.94,0 -10.73,4.8 -10.73,10.74l0 0 0 79.8c0,5.92 4.79,10.74 10.73,10.74l0 0 395.89 0c5.94,0 10.74,-4.81 10.74,-10.74l0 0 0 -79.8c0,-5.94 -4.81,-10.74 -10.74,-10.74l0 0 -395.89 0zm10.74 79.8l374.43 0 0 -58.33 -374.43 0 0 58.33z"/>
   <g id="Clip-39">
   </g>
   <path id="Fill-38" class="fil6" d="M779.75 1457.3c-5.93,0 -10.74,4.8 -10.74,10.74l0 0 0 79.8c0,5.92 4.8,10.74 10.74,10.74l0 0 81.52 0c5.94,0 10.73,-4.81 10.73,-10.74l0 0 0 -79.8c0,-5.94 -4.79,-10.74 -10.73,-10.74l0 0 -81.52 0zm10.74 79.8l60.05 0 0 -58.33 -60.05 0 0 58.33z"/>
   <g id="Clip-42">
   </g>
   <path id="Fill-41" class="fil7" d="M317.32 1337.51c-5.94,0 -10.73,4.79 -10.73,10.73l0 0c0,5.93 4.79,10.74 10.73,10.74l0 0 395.89 0c5.94,0 10.74,-4.81 10.74,-10.74l0 0c0,-5.94 -4.81,-10.73 -10.74,-10.73l0 0 -395.89 0z"/>
   <g id="Clip-45">
   </g>
   <path id="Fill-44" class="fil8" d="M317.32 1228.82c-5.94,0 -10.73,4.81 -10.73,10.73l0 0c0,5.94 4.79,10.74 10.73,10.74l0 0 543.95 0c5.94,0 10.73,-4.81 10.73,-10.74l0 0c0,-5.92 -4.79,-10.73 -10.73,-10.73l0 0 -543.95 0z"/>
   <g id="Clip-50">
   </g>
   <path id="Fill-49" class="fil9" d="M1853.65 1056.76l-179.92 103.89c-3.31,1.93 -5.36,5.46 -5.36,9.3l0 0 0 254.56c0,3.83 2.05,7.37 5.36,9.29l0 0 179.92 103.89c1.64,0.95 3.51,1.43 5.37,1.43l0 0c1.83,0 3.71,-0.48 5.37,-1.43l0 0c3.31,-1.92 5.37,-5.46 5.37,-9.3l0 0 0 -462.32c0,-3.83 -2.06,-7.37 -5.37,-9.3l0 0c-1.66,-0.95 -3.51,-1.42 -5.37,-1.42l0 0c-1.85,0 -3.71,0.48 -5.36,1.42l0 0zm-163.82 361.54l0 -242.16 158.45 -91.47 0 425.11 -158.45 -91.48z"/>
   <g id="Clip-55">
   </g>
   <path id="Fill-54" class="fil10" d="M1928.79 983.85l-75.14 43.39c-3.32,1.9 -5.37,5.45 -5.37,9.29l0 0 0 521.36c0,3.83 2.05,7.39 5.37,9.3l0 0 75.14 43.4c1.66,0.96 3.53,1.44 5.37,1.44l0 0c1.84,0 3.72,-0.48 5.37,-1.44l0 0c3.31,-1.92 5.37,-5.45 5.37,-9.3l0 0 0 -608.15c0,-3.84 -2.06,-7.38 -5.37,-9.3l0 0c-1.65,-0.95 -3.51,-1.43 -5.37,-1.43l0 0c-1.86,0 -3.71,0.48 -5.37,1.43l0 0zm-59.04 567.86l0 -508.97 53.67 -30.98 0 570.94 -53.67 -30.99z"/>
  </g>
  <g id="_2472932628688">
   <g id="GIFOS">
    <g id="_00-UI-Kit">
     <polygon id="element-luz-camara" class="fil11" points="1974.64,980.41 3345.25,119.29 3345.25,2393.6 1974.64,1597.01 "/>
    </g>
   </g>
  </g>
  <g id="_2472932628784">
   <g id="GIFOS_0">
    <g id="_00-UI-Kit_1">
     <g id="element_cinta1">
      <path id="Fill-11" class="fil12" d="M359.64 994.15c-192.65,0 -348.82,-156.17 -348.82,-348.82 0,-192.66 156.16,-348.83 348.82,-348.83 192.65,0 348.85,156.17 348.85,348.83 0,192.65 -156.19,348.82 -348.85,348.82z"/>
      <g id="Clip-14">
      </g>
      <path id="Fill-13" class="fil13" d="M-0 645.32c0,198.31 161.34,359.65 359.64,359.65l0 0c198.33,0 359.67,-161.34 359.67,-359.65l0 0c0,-198.31 -161.34,-359.65 -359.67,-359.65l0 0c-198.31,0 -359.64,161.34 -359.64,359.65m21.64 0c0,-186.37 151.62,-338 338,-338l0 0c186.37,0 338.02,151.63 338.02,338l0 0c0,186.37 -151.64,338 -338.02,338l0 0c-186.38,0 -338,-151.63 -338,-338z"/>
      <path id="Fill-77" class="fil12" d="M406.29 380.8l0 168.89c24.08,10.63 43.41,29.96 54.03,54.03l168.9 0c-18.26,-114.22 -108.72,-204.67 -222.94,-222.92z"/>
      <g id="Clip-80">
      </g>
      <path id="Fill-79" class="fil14" d="M402.58 376.43c-1.28,1.11 -2.01,2.69 -2.01,4.37l0 0 0 168.89c0,2.27 1.34,4.32 3.4,5.23l0 0c22.87,10.1 41.02,28.25 51.11,51.12l0 0c0.91,2.06 2.97,3.41 5.23,3.41l0 0 168.9 0c1.68,0 3.27,-0.74 4.37,-2.01l0 0c1.07,-1.28 1.55,-2.98 1.28,-4.62l0 0c-18.77,-117.41 -110.25,-208.89 -227.67,-227.68l0 0c-0.29,-0.04 -0.58,-0.06 -0.87,-0.06l0 0c-1.36,0 -2.69,0.47 -3.75,1.35m9.44 169.61l0 -158.44c107.12,19.9 190.5,103.28 210.4,210.4l0 0 -158.43 0c-10.97,-22.74 -29.22,-41 -51.97,-51.96z"/>
      <path id="Fill-82" class="fil12" d="M319.3 380.8c-114.22,18.25 -204.68,108.71 -222.94,222.92l168.9 0c10.64,-24.07 29.96,-43.4 54.04,-54.03l0 -168.89z"/>
      <g id="Clip-85">
      </g>
      <path id="Fill-84" class="fil15" d="M318.4 375.14c-117.4,18.79 -208.92,110.27 -227.7,227.68l0 0c-0.25,1.65 0.21,3.35 1.31,4.62l0 0c1.09,1.27 2.68,2.01 4.34,2.01l0 0 168.9 0c2.26,0 4.32,-1.35 5.23,-3.41l0 0c10.11,-22.88 28.27,-41.03 51.13,-51.12l0 0c2.07,-0.91 3.41,-2.96 3.41,-5.23l0 0 0 -168.89c0,-1.68 -0.74,-3.26 -2.02,-4.37l0 0c-1.06,-0.88 -2.39,-1.35 -3.75,-1.35l0 0c-0.29,0 -0.58,0.02 -0.87,0.06m-4.83 12.46l0 158.44c-22.73,10.95 -40.99,29.22 -51.98,51.96l0 0 -158.43 0c19.9,-107.12 103.28,-190.5 210.4,-210.4z"/>
      <path id="Fill-87" class="fil12" d="M265.26 690.71l-168.89 0c18.27,114.22 108.71,204.67 222.93,222.93l0 -168.89c-24.08,-10.64 -43.39,-29.96 -54.04,-54.04z"/>
      <g id="Clip-90">
      </g>
      <path id="Fill-89" class="fil16" d="M96.36 684.98c-1.67,0 -3.25,0.74 -4.34,2.02l0 0c-1.09,1.28 -1.56,2.96 -1.31,4.62l0 0c18.77,117.4 110.27,208.91 227.7,227.7l0 0c0.3,0.04 0.6,0.07 0.9,0.07l0 0c1.36,0 2.68,-0.49 3.72,-1.36l0 0c1.28,-1.1 2.02,-2.69 2.02,-4.38l0 0 0 -168.88c0,-2.28 -1.35,-4.32 -3.41,-5.24l0 0c-22.86,-10.1 -41.02,-28.24 -51.13,-51.12l0 0c-0.91,-2.06 -2.97,-3.41 -5.23,-3.41l0 0 -168.9 0zm6.81 11.45l158.43 0c10.99,22.77 29.25,41.03 51.98,51.97l0 0 0 158.46c-107.12,-19.92 -190.5,-103.31 -210.4,-210.43l0 0z"/>
      <path id="Fill-92" class="fil12" d="M406.29 913.64c114.22,-18.26 204.68,-108.71 222.94,-222.93l-168.9 0c-10.62,24.07 -29.96,43.4 -54.03,54.04l0 168.89z"/>
      <g id="Clip-95">
      </g>
      <path id="Fill-94" class="fil17" d="M460.31 684.98c-2.26,0 -4.32,1.36 -5.23,3.41l0 0c-10.09,22.87 -28.24,41.01 -51.11,51.12l0 0c-2.07,0.92 -3.4,2.96 -3.4,5.24l0 0 0 168.88c0,1.69 0.73,3.28 2.01,4.38l0 0c1.04,0.87 2.36,1.36 3.71,1.36l0 0c0.31,0 0.61,-0.03 0.91,-0.07l0 0c117.42,-18.78 208.9,-110.29 227.67,-227.7l0 0c0.27,-1.65 -0.21,-3.34 -1.28,-4.62l0 0c-1.1,-1.28 -2.69,-2.02 -4.37,-2.02l0 0 -168.9 0zm-48.3 63.42c22.75,-10.96 41,-29.22 51.97,-51.97l0 0 158.43 0c-19.9,107.13 -103.28,190.51 -210.4,210.43l0 0 0 -158.46z"/>
     </g>
    </g>
   </g>
  </g>
  <g id="_2472932638256">
   <g id="GIFOS_2">
    <g id="_00-UI-Kit_3">
     <g id="element_cinta2">
      <path id="Fill-6" class="fil12" d="M1757.96 495.89c0,267.91 -217.2,485.13 -485.13,485.13 -267.92,0 -485.12,-217.21 -485.12,-485.13 0,-267.92 217.2,-485.12 485.12,-485.12 267.93,0 485.13,217.2 485.13,485.12z"/>
      <g id="Clip-9">
      </g>
      <path id="Fill-8" class="fil18" d="M1272.83 0c-273.44,0 -495.89,222.45 -495.89,495.89l0 0c0,273.44 222.45,495.89 495.89,495.89l0 0c273.44,0 495.9,-222.45 495.9,-495.89l0 0c0,-273.44 -222.47,-495.89 -495.9,-495.89zm-474.35 495.89c0,-261.56 212.8,-474.35 474.35,-474.35l0 0c261.56,0 474.36,212.79 474.36,474.35l0 0c0,261.55 -212.8,474.34 -474.36,474.34l0 0c-261.55,0 -474.35,-212.79 -474.35,-474.34l0 0z"/>
      <path id="Fill-16" class="fil12" d="M1359.07 495.88c0,47.64 -38.6,86.24 -86.24,86.24 -47.62,0 -86.24,-38.61 -86.24,-86.24 0,-47.62 38.61,-86.23 86.24,-86.23 47.64,0 86.24,38.6 86.24,86.23z"/>
      <g id="Clip-19">
      </g>
      <path id="Fill-18" class="fil19" d="M1181.83 495.89c0,50.17 40.82,91 91,91l0 0c50.17,0 91,-40.82 91,-91l0 0c0,-50.17 -40.83,-91 -91,-91l0 0c-50.17,0 -91,40.83 -91,91m9.52 0c0,-44.93 36.54,-81.47 81.47,-81.47l0 0c44.93,0 81.49,36.54 81.49,81.47l0 0c0,44.93 -36.56,81.49 -81.49,81.49l0 0c-44.93,0 -81.47,-36.56 -81.47,-81.49z"/>
      <path id="Fill-57" class="fil12" d="M1334.06 120.86l0 237.73c33.89,14.97 61.09,42.18 76.05,76.06l237.74 0c-25.7,-160.78 -153.02,-288.1 -313.79,-313.79z"/>
      <g id="Clip-60">
      </g>
      <path id="Fill-59" class="fil20" d="M1328.84 114.72c-1.8,1.55 -2.84,3.78 -2.84,6.14l0 0 0 237.74c0,3.19 1.89,6.07 4.8,7.36l0 0c32.18,14.22 57.73,39.76 71.95,71.95l0 0c1.27,2.91 4.18,4.79 7.36,4.79l0 0 237.75 0c2.36,0 4.59,-1.03 6.15,-2.82l0 0c1.52,-1.81 2.18,-4.18 1.82,-6.5l0 0c-26.43,-165.27 -155.21,-294.06 -320.48,-320.48l0 0c-0.41,-0.06 -0.82,-0.09 -1.23,-0.09l0 0c-1.92,0 -3.8,0.67 -5.28,1.92m13.28 238.72l0 -223.02c150.79,28.01 268.15,145.39 296.17,296.17l0 0 -223 0c-15.46,-32.01 -41.13,-57.72 -73.16,-73.15z"/>
      <path id="Fill-62" class="fil12" d="M1211.62 120.86c-160.79,25.7 -288.11,153.01 -313.81,313.79l237.73 0c14.99,-33.88 42.18,-61.09 76.08,-76.06l0 -237.73z"/>
      <g id="Clip-65">
      </g>
      <path id="Fill-64" class="fil21" d="M1210.34 112.9c-165.28,26.42 -294.08,155.21 -320.5,320.48l0 0c-0.37,2.32 0.3,4.7 1.83,6.5l0 0c1.54,1.79 3.77,2.82 6.14,2.82l0 0 237.72 0c3.2,0 6.07,-1.88 7.37,-4.79l0 0c14.23,-32.19 39.8,-57.73 71.96,-71.95l0 0c2.92,-1.3 4.8,-4.17 4.8,-7.36l0 0 0 -237.74c0,-2.36 -1.03,-4.59 -2.83,-6.14l0 0c-1.48,-1.24 -3.36,-1.92 -5.28,-1.92l0 0c-0.4,0 -0.81,0.03 -1.22,0.09m-6.78 17.52l0 223.02c-32.02,15.41 -57.72,41.12 -73.17,73.15l0 0 -223.02 0c28.01,-150.8 145.39,-268.16 296.19,-296.17z"/>
      <path id="Fill-67" class="fil12" d="M1135.54 557.09l-237.74 0c25.7,160.8 153.02,288.1 313.82,313.82l0 -237.74c-33.9,-14.98 -61.1,-42.18 -76.08,-76.07z"/>
      <g id="Clip-70">
      </g>
      <path id="Fill-69" class="fil22" d="M897.81 549.05c-2.37,0 -4.6,1.03 -6.14,2.83l0 0c-1.53,1.8 -2.2,4.17 -1.83,6.5l0 0c26.42,165.25 155.21,294.05 320.5,320.5l0 0c0.42,0.06 0.84,0.1 1.27,0.1l0 0c1.9,0 3.77,-0.67 5.23,-1.92l0 0c1.79,-1.53 2.83,-3.77 2.83,-6.15l0 0 0 -237.73c0,-3.2 -1.88,-6.08 -4.8,-7.38l0 0c-32.17,-14.2 -57.73,-39.75 -71.96,-71.95l0 0c-1.3,-2.91 -4.17,-4.79 -7.37,-4.79l0 0 -237.72 0zm9.56 16.1l223.02 0c15.46,32.03 41.15,57.73 73.17,73.17l0 0 0 223.03c-150.8,-28.03 -268.18,-145.41 -296.19,-296.19l0 0z"/>
      <path id="Fill-72" class="fil12" d="M1334.06 870.91c160.77,-25.72 288.09,-153.01 313.79,-313.81l-237.74 0c-14.96,33.89 -42.16,61.1 -76.05,76.07l0 237.74z"/>
      <g id="Clip-75">
      </g>
      <path id="Fill-74" class="fil23" d="M1410.11 549.05c-3.18,0 -6.08,1.89 -7.36,4.79l0 0c-14.22,32.19 -39.76,57.73 -71.95,71.95l0 0c-2.91,1.29 -4.8,4.18 -4.8,7.38l0 0 0 237.73c0,2.38 1.04,4.62 2.84,6.15l0 0c1.47,1.24 3.32,1.92 5.23,1.92l0 0c0.42,0 0.84,-0.04 1.28,-0.1l0 0c165.27,-26.45 294.05,-155.25 320.48,-320.5l0 0c0.36,-2.32 -0.3,-4.7 -1.82,-6.5l0 0c-1.55,-1.79 -3.79,-2.83 -6.15,-2.83l0 0 -237.75 0zm-67.99 89.27c32.03,-15.45 57.71,-41.15 73.16,-73.17l0 0 223 0c-27.99,150.78 -145.38,268.16 -296.17,296.19l0 0 0 -223.03z"/>
     </g>
    </g>
   </g>
  </g>
 </g>
</svg>
